G04 #@! TF.FileFunction,Legend,Top*
%FSLAX46Y46*%
G04 Gerber Fmt 4.6, Leading zero omitted, Abs format (unit mm)*
G04 Created by KiCad (PCBNEW 4.0.5) date 03/13/17 18:48:00*
%MOMM*%
%LPD*%
G01*
G04 APERTURE LIST*
%ADD10C,0.100000*%
%ADD11C,0.200000*%
%ADD12C,0.150000*%
%ADD13C,0.120000*%
G04 APERTURE END LIST*
D10*
D11*
X150876000Y-76962000D02*
X147320000Y-76962000D01*
X150876000Y-92964000D02*
X147320000Y-92964000D01*
X147682143Y-90655857D02*
X148482143Y-91855857D01*
X148482143Y-90655857D02*
X147682143Y-91855857D01*
X148767857Y-90655857D02*
X149453571Y-90655857D01*
X149110714Y-91855857D02*
X149110714Y-90655857D01*
X149853571Y-91855857D02*
X149853571Y-90655857D01*
X150253571Y-91513000D01*
X150653571Y-90655857D01*
X150653571Y-91855857D01*
X147640857Y-89131714D02*
X147812286Y-89188857D01*
X148098000Y-89188857D01*
X148212286Y-89131714D01*
X148269429Y-89074571D01*
X148326572Y-88960286D01*
X148326572Y-88846000D01*
X148269429Y-88731714D01*
X148212286Y-88674571D01*
X148098000Y-88617429D01*
X147869429Y-88560286D01*
X147755143Y-88503143D01*
X147698000Y-88446000D01*
X147640857Y-88331714D01*
X147640857Y-88217429D01*
X147698000Y-88103143D01*
X147755143Y-88046000D01*
X147869429Y-87988857D01*
X148155143Y-87988857D01*
X148326572Y-88046000D01*
X148840857Y-89188857D02*
X148840857Y-87988857D01*
X149126572Y-87988857D01*
X149298000Y-88046000D01*
X149412286Y-88160286D01*
X149469429Y-88274571D01*
X149526572Y-88503143D01*
X149526572Y-88674571D01*
X149469429Y-88903143D01*
X149412286Y-89017429D01*
X149298000Y-89131714D01*
X149126572Y-89188857D01*
X148840857Y-89188857D01*
X149983714Y-88846000D02*
X150555143Y-88846000D01*
X149869429Y-89188857D02*
X150269429Y-87988857D01*
X150669429Y-89188857D01*
X147669428Y-86591714D02*
X147840857Y-86648857D01*
X148126571Y-86648857D01*
X148240857Y-86591714D01*
X148298000Y-86534571D01*
X148355143Y-86420286D01*
X148355143Y-86306000D01*
X148298000Y-86191714D01*
X148240857Y-86134571D01*
X148126571Y-86077429D01*
X147898000Y-86020286D01*
X147783714Y-85963143D01*
X147726571Y-85906000D01*
X147669428Y-85791714D01*
X147669428Y-85677429D01*
X147726571Y-85563143D01*
X147783714Y-85506000D01*
X147898000Y-85448857D01*
X148183714Y-85448857D01*
X148355143Y-85506000D01*
X149555143Y-86534571D02*
X149498000Y-86591714D01*
X149326571Y-86648857D01*
X149212285Y-86648857D01*
X149040857Y-86591714D01*
X148926571Y-86477429D01*
X148869428Y-86363143D01*
X148812285Y-86134571D01*
X148812285Y-85963143D01*
X148869428Y-85734571D01*
X148926571Y-85620286D01*
X149040857Y-85506000D01*
X149212285Y-85448857D01*
X149326571Y-85448857D01*
X149498000Y-85506000D01*
X149555143Y-85563143D01*
X150640857Y-86648857D02*
X150069428Y-86648857D01*
X150069428Y-85448857D01*
X148361429Y-83994571D02*
X148304286Y-84051714D01*
X148132857Y-84108857D01*
X148018571Y-84108857D01*
X147847143Y-84051714D01*
X147732857Y-83937429D01*
X147675714Y-83823143D01*
X147618571Y-83594571D01*
X147618571Y-83423143D01*
X147675714Y-83194571D01*
X147732857Y-83080286D01*
X147847143Y-82966000D01*
X148018571Y-82908857D01*
X148132857Y-82908857D01*
X148304286Y-82966000D01*
X148361429Y-83023143D01*
X148875714Y-84108857D02*
X148875714Y-82908857D01*
X149561429Y-84108857D02*
X149047143Y-83423143D01*
X149561429Y-82908857D02*
X148875714Y-83594571D01*
X147707428Y-81511714D02*
X147878857Y-81568857D01*
X148164571Y-81568857D01*
X148278857Y-81511714D01*
X148336000Y-81454571D01*
X148393143Y-81340286D01*
X148393143Y-81226000D01*
X148336000Y-81111714D01*
X148278857Y-81054571D01*
X148164571Y-80997429D01*
X147936000Y-80940286D01*
X147821714Y-80883143D01*
X147764571Y-80826000D01*
X147707428Y-80711714D01*
X147707428Y-80597429D01*
X147764571Y-80483143D01*
X147821714Y-80426000D01*
X147936000Y-80368857D01*
X148221714Y-80368857D01*
X148393143Y-80426000D01*
X148907428Y-81568857D02*
X148907428Y-80368857D01*
X148390001Y-78914571D02*
X148332858Y-78971714D01*
X148161429Y-79028857D01*
X148047143Y-79028857D01*
X147875715Y-78971714D01*
X147761429Y-78857429D01*
X147704286Y-78743143D01*
X147647143Y-78514571D01*
X147647143Y-78343143D01*
X147704286Y-78114571D01*
X147761429Y-78000286D01*
X147875715Y-77886000D01*
X148047143Y-77828857D01*
X148161429Y-77828857D01*
X148332858Y-77886000D01*
X148390001Y-77943143D01*
X148847143Y-78971714D02*
X149018572Y-79028857D01*
X149304286Y-79028857D01*
X149418572Y-78971714D01*
X149475715Y-78914571D01*
X149532858Y-78800286D01*
X149532858Y-78686000D01*
X149475715Y-78571714D01*
X149418572Y-78514571D01*
X149304286Y-78457429D01*
X149075715Y-78400286D01*
X148961429Y-78343143D01*
X148904286Y-78286000D01*
X148847143Y-78171714D01*
X148847143Y-78057429D01*
X148904286Y-77943143D01*
X148961429Y-77886000D01*
X149075715Y-77828857D01*
X149361429Y-77828857D01*
X149532858Y-77886000D01*
X148250286Y-72879143D02*
X148250286Y-73793429D01*
X147793143Y-73336286D02*
X148707429Y-73336286D01*
X148993143Y-74250572D02*
X148993143Y-74993429D01*
X148536000Y-74593429D01*
X148536000Y-74764857D01*
X148478857Y-74879143D01*
X148421714Y-74936286D01*
X148307429Y-74993429D01*
X148021714Y-74993429D01*
X147907429Y-74936286D01*
X147850286Y-74879143D01*
X147793143Y-74764857D01*
X147793143Y-74422000D01*
X147850286Y-74307714D01*
X147907429Y-74250572D01*
X148993143Y-75336286D02*
X147793143Y-75736286D01*
X148993143Y-76136286D01*
X148936000Y-94335715D02*
X148993143Y-94221429D01*
X148993143Y-94050000D01*
X148936000Y-93878572D01*
X148821714Y-93764286D01*
X148707429Y-93707143D01*
X148478857Y-93650000D01*
X148307429Y-93650000D01*
X148078857Y-93707143D01*
X147964571Y-93764286D01*
X147850286Y-93878572D01*
X147793143Y-94050000D01*
X147793143Y-94164286D01*
X147850286Y-94335715D01*
X147907429Y-94392858D01*
X148307429Y-94392858D01*
X148307429Y-94164286D01*
X147793143Y-94907143D02*
X148993143Y-94907143D01*
X147793143Y-95592858D01*
X148993143Y-95592858D01*
X147793143Y-96164286D02*
X148993143Y-96164286D01*
X148993143Y-96450001D01*
X148936000Y-96621429D01*
X148821714Y-96735715D01*
X148707429Y-96792858D01*
X148478857Y-96850001D01*
X148307429Y-96850001D01*
X148078857Y-96792858D01*
X147964571Y-96735715D01*
X147850286Y-96621429D01*
X147793143Y-96450001D01*
X147793143Y-96164286D01*
D12*
X157953000Y-88181000D02*
X158003000Y-88181000D01*
X157953000Y-84031000D02*
X158098000Y-84031000D01*
X163103000Y-84031000D02*
X162958000Y-84031000D01*
X163103000Y-88181000D02*
X162958000Y-88181000D01*
X157953000Y-88181000D02*
X157953000Y-84031000D01*
X163103000Y-88181000D02*
X163103000Y-84031000D01*
X158003000Y-88181000D02*
X158003000Y-89581000D01*
X165816000Y-81828000D02*
X165816000Y-80728000D01*
X165816000Y-80728000D02*
X165516000Y-80728000D01*
X165516000Y-80728000D02*
X165516000Y-79528000D01*
X165516000Y-79528000D02*
X169316000Y-79528000D01*
X169316000Y-79528000D02*
X169316000Y-80428000D01*
X169316000Y-80428000D02*
X170516000Y-80428000D01*
X170516000Y-80428000D02*
X170516000Y-88128000D01*
X170516000Y-88128000D02*
X169416000Y-88128000D01*
X169416000Y-88128000D02*
X169416000Y-89028000D01*
X169416000Y-89028000D02*
X165516000Y-89028000D01*
X165516000Y-89028000D02*
X165516000Y-87728000D01*
X165516000Y-87728000D02*
X165816000Y-87728000D01*
X165816000Y-87728000D02*
X165816000Y-81828000D01*
D13*
X155360000Y-76970000D02*
X155360000Y-77970000D01*
X157060000Y-77970000D02*
X157060000Y-76970000D01*
X160620000Y-77842000D02*
X159420000Y-77842000D01*
X159420000Y-76082000D02*
X160620000Y-76082000D01*
X159320000Y-81170000D02*
X161220000Y-81170000D01*
X160720000Y-78850000D02*
X159320000Y-78850000D01*
X154822000Y-88230000D02*
X154822000Y-87030000D01*
X156582000Y-87030000D02*
X156582000Y-88230000D01*
X156582000Y-92110000D02*
X156582000Y-93310000D01*
X154822000Y-93310000D02*
X154822000Y-92110000D01*
X151043333Y-74635000D02*
X151043333Y-97615000D01*
X151043333Y-97615000D02*
X153823333Y-97615000D01*
X153823333Y-97615000D02*
X153823333Y-74635000D01*
X153823333Y-74635000D02*
X151043333Y-74635000D01*
X151043333Y-73365000D02*
X151043333Y-71975000D01*
X151043333Y-71975000D02*
X152433333Y-71975000D01*
D12*
X159960000Y-94414000D02*
X159960000Y-94014000D01*
X159960000Y-92764000D02*
X159960000Y-93164000D01*
X159510000Y-94014000D02*
X160410000Y-94014000D01*
X159510000Y-93164000D02*
X160460000Y-93164000D01*
X159510000Y-93414000D02*
X160410000Y-93414000D01*
X160410000Y-93414000D02*
X160410000Y-93764000D01*
X160410000Y-93764000D02*
X159510000Y-93764000D01*
X159510000Y-93764000D02*
X159510000Y-93414000D01*
X159960000Y-92864000D02*
X159960000Y-91964000D01*
X159960000Y-95314000D02*
X159960000Y-94314000D01*
X158960000Y-91914000D02*
X166310000Y-91914000D01*
X166310000Y-91914000D02*
X166310000Y-95314000D01*
X166310000Y-95314000D02*
X158960000Y-95314000D01*
X158960000Y-95314000D02*
X158960000Y-91914000D01*
X159724381Y-86737905D02*
X160533905Y-86737905D01*
X160629143Y-86690286D01*
X160676762Y-86642667D01*
X160724381Y-86547429D01*
X160724381Y-86356952D01*
X160676762Y-86261714D01*
X160629143Y-86214095D01*
X160533905Y-86166476D01*
X159724381Y-86166476D01*
X160724381Y-85166476D02*
X160724381Y-85737905D01*
X160724381Y-85452191D02*
X159724381Y-85452191D01*
X159867238Y-85547429D01*
X159962476Y-85642667D01*
X160010095Y-85737905D01*
X169108381Y-85320095D02*
X168108381Y-85320095D01*
X168108381Y-84939142D01*
X168156000Y-84843904D01*
X168203619Y-84796285D01*
X168298857Y-84748666D01*
X168441714Y-84748666D01*
X168536952Y-84796285D01*
X168584571Y-84843904D01*
X168632190Y-84939142D01*
X168632190Y-85320095D01*
X169108381Y-83796285D02*
X169108381Y-84367714D01*
X169108381Y-84082000D02*
X168108381Y-84082000D01*
X168251238Y-84177238D01*
X168346476Y-84272476D01*
X168394095Y-84367714D01*
X156669143Y-74182666D02*
X156716762Y-74230285D01*
X156764381Y-74373142D01*
X156764381Y-74468380D01*
X156716762Y-74611238D01*
X156621524Y-74706476D01*
X156526286Y-74754095D01*
X156335810Y-74801714D01*
X156192952Y-74801714D01*
X156002476Y-74754095D01*
X155907238Y-74706476D01*
X155812000Y-74611238D01*
X155764381Y-74468380D01*
X155764381Y-74373142D01*
X155812000Y-74230285D01*
X155859619Y-74182666D01*
X156764381Y-73230285D02*
X156764381Y-73801714D01*
X156764381Y-73516000D02*
X155764381Y-73516000D01*
X155907238Y-73611238D01*
X156002476Y-73706476D01*
X156050095Y-73801714D01*
X159853334Y-75382381D02*
X159520000Y-74906190D01*
X159281905Y-75382381D02*
X159281905Y-74382381D01*
X159662858Y-74382381D01*
X159758096Y-74430000D01*
X159805715Y-74477619D01*
X159853334Y-74572857D01*
X159853334Y-74715714D01*
X159805715Y-74810952D01*
X159758096Y-74858571D01*
X159662858Y-74906190D01*
X159281905Y-74906190D01*
X160805715Y-75382381D02*
X160234286Y-75382381D01*
X160520000Y-75382381D02*
X160520000Y-74382381D01*
X160424762Y-74525238D01*
X160329524Y-74620476D01*
X160234286Y-74668095D01*
X162858095Y-79710381D02*
X162858095Y-80519905D01*
X162905714Y-80615143D01*
X162953333Y-80662762D01*
X163048571Y-80710381D01*
X163239048Y-80710381D01*
X163334286Y-80662762D01*
X163381905Y-80615143D01*
X163429524Y-80519905D01*
X163429524Y-79710381D01*
X163858095Y-79805619D02*
X163905714Y-79758000D01*
X164000952Y-79710381D01*
X164239048Y-79710381D01*
X164334286Y-79758000D01*
X164381905Y-79805619D01*
X164429524Y-79900857D01*
X164429524Y-79996095D01*
X164381905Y-80138952D01*
X163810476Y-80710381D01*
X164429524Y-80710381D01*
X156154381Y-84240666D02*
X155678190Y-84574000D01*
X156154381Y-84812095D02*
X155154381Y-84812095D01*
X155154381Y-84431142D01*
X155202000Y-84335904D01*
X155249619Y-84288285D01*
X155344857Y-84240666D01*
X155487714Y-84240666D01*
X155582952Y-84288285D01*
X155630571Y-84335904D01*
X155678190Y-84431142D01*
X155678190Y-84812095D01*
X155249619Y-83859714D02*
X155202000Y-83812095D01*
X155154381Y-83716857D01*
X155154381Y-83478761D01*
X155202000Y-83383523D01*
X155249619Y-83335904D01*
X155344857Y-83288285D01*
X155440095Y-83288285D01*
X155582952Y-83335904D01*
X156154381Y-83907333D01*
X156154381Y-83288285D01*
X156256381Y-96348666D02*
X155780190Y-96682000D01*
X156256381Y-96920095D02*
X155256381Y-96920095D01*
X155256381Y-96539142D01*
X155304000Y-96443904D01*
X155351619Y-96396285D01*
X155446857Y-96348666D01*
X155589714Y-96348666D01*
X155684952Y-96396285D01*
X155732571Y-96443904D01*
X155780190Y-96539142D01*
X155780190Y-96920095D01*
X155256381Y-96015333D02*
X155256381Y-95396285D01*
X155637333Y-95729619D01*
X155637333Y-95586761D01*
X155684952Y-95491523D01*
X155732571Y-95443904D01*
X155827810Y-95396285D01*
X156065905Y-95396285D01*
X156161143Y-95443904D01*
X156208762Y-95491523D01*
X156256381Y-95586761D01*
X156256381Y-95872476D01*
X156208762Y-95967714D01*
X156161143Y-96015333D01*
X162083809Y-93702190D02*
X162083809Y-94178381D01*
X161750476Y-93178381D02*
X162083809Y-93702190D01*
X162417143Y-93178381D01*
X163274286Y-94178381D02*
X162702857Y-94178381D01*
X162988571Y-94178381D02*
X162988571Y-93178381D01*
X162893333Y-93321238D01*
X162798095Y-93416476D01*
X162702857Y-93464095D01*
M02*
