G04 #@! TF.FileFunction,Copper,L1,Top,Signal*
%FSLAX46Y46*%
G04 Gerber Fmt 4.6, Leading zero omitted, Abs format (unit mm)*
G04 Created by KiCad (PCBNEW 4.0.5) date 03/13/17 18:48:00*
%MOMM*%
%LPD*%
G01*
G04 APERTURE LIST*
%ADD10C,0.100000*%
%ADD11R,0.600000X1.550000*%
%ADD12R,1.000000X0.300000*%
%ADD13R,1.300000X2.000000*%
%ADD14R,1.250000X1.500000*%
%ADD15R,1.500000X1.300000*%
%ADD16R,1.500000X0.400000*%
%ADD17R,1.300000X1.500000*%
%ADD18R,1.700000X1.700000*%
%ADD19O,1.700000X1.700000*%
%ADD20R,1.300000X1.900000*%
%ADD21C,0.685800*%
%ADD22C,0.152400*%
%ADD23C,0.254000*%
G04 APERTURE END LIST*
D10*
D11*
X158623000Y-88806000D03*
X159893000Y-88806000D03*
X161163000Y-88806000D03*
X162433000Y-88806000D03*
X162433000Y-83406000D03*
X161163000Y-83406000D03*
X159893000Y-83406000D03*
X158623000Y-83406000D03*
D12*
X165616000Y-84578000D03*
X165616000Y-85078000D03*
X165616000Y-85578000D03*
X165616000Y-86078000D03*
X165616000Y-86578000D03*
X165616000Y-84078000D03*
X165616000Y-83578000D03*
X165616000Y-83078000D03*
X165616000Y-82578000D03*
X165616000Y-82078000D03*
D13*
X168316000Y-88878000D03*
X168316000Y-79778000D03*
D14*
X156210000Y-78720000D03*
X156210000Y-76220000D03*
D15*
X158670000Y-76962000D03*
X161370000Y-76962000D03*
D16*
X161350000Y-80660000D03*
X161350000Y-80010000D03*
X161350000Y-79360000D03*
X158690000Y-79360000D03*
X158690000Y-80660000D03*
D17*
X155702000Y-86280000D03*
X155702000Y-88980000D03*
X155702000Y-94060000D03*
X155702000Y-91360000D03*
D18*
X152433333Y-73365000D03*
D19*
X152433333Y-75905000D03*
X152433333Y-78445000D03*
X152433333Y-80985000D03*
X152433333Y-83525000D03*
X152433333Y-86065000D03*
X152433333Y-88605000D03*
X152433333Y-91145000D03*
X152433333Y-93685000D03*
X152433333Y-96225000D03*
D20*
X159860000Y-92014000D03*
X165360000Y-92014000D03*
X165360000Y-95214000D03*
X159860000Y-95214000D03*
D21*
X157480000Y-83058000D03*
X164084000Y-83058000D03*
X162814000Y-79502000D03*
X163576000Y-89154000D03*
X167132000Y-82550000D03*
X156210000Y-73406000D03*
X156718000Y-80518000D03*
X166878000Y-85090000D03*
X164084000Y-84582000D03*
X164084000Y-85852000D03*
X164084000Y-87630000D03*
X168656000Y-83566000D03*
D22*
X165616000Y-83578000D02*
X164604000Y-83578000D01*
X164604000Y-83578000D02*
X164084000Y-83058000D01*
X165616000Y-84578000D02*
X165616000Y-84078000D01*
X165616000Y-83578000D02*
X165616000Y-84078000D01*
X161350000Y-79360000D02*
X162672000Y-79360000D01*
X162672000Y-79360000D02*
X162814000Y-79502000D01*
X161163000Y-88806000D02*
X162433000Y-88806000D01*
X162433000Y-88806000D02*
X163228000Y-88806000D01*
X163228000Y-88806000D02*
X163576000Y-89154000D01*
X165616000Y-82578000D02*
X167104000Y-82578000D01*
X167104000Y-82578000D02*
X167132000Y-82550000D01*
X165616000Y-82078000D02*
X165616000Y-82578000D01*
X156210000Y-76220000D02*
X156210000Y-73406000D01*
X165616000Y-85078000D02*
X166866000Y-85078000D01*
X157876000Y-79360000D02*
X158690000Y-79360000D01*
X156718000Y-80518000D02*
X157876000Y-79360000D01*
X166866000Y-85078000D02*
X166878000Y-85090000D01*
X161163000Y-83406000D02*
X161163000Y-86487000D01*
X157988000Y-87122000D02*
X156130000Y-88980000D01*
X160528000Y-87122000D02*
X157988000Y-87122000D01*
X161163000Y-86487000D02*
X160528000Y-87122000D01*
X156130000Y-88980000D02*
X155702000Y-88980000D01*
X155702000Y-88980000D02*
X156036000Y-88980000D01*
X152433333Y-86065000D02*
X152433333Y-86393333D01*
X152433333Y-86393333D02*
X155020000Y-88980000D01*
X155020000Y-88980000D02*
X155702000Y-88980000D01*
X162433000Y-83406000D02*
X162433000Y-85979000D01*
X157052000Y-91360000D02*
X155702000Y-91360000D01*
X157480000Y-90932000D02*
X157052000Y-91360000D01*
X157480000Y-88138000D02*
X157480000Y-90932000D01*
X157988000Y-87630000D02*
X157480000Y-88138000D01*
X160782000Y-87630000D02*
X157988000Y-87630000D01*
X162433000Y-85979000D02*
X160782000Y-87630000D01*
X152433333Y-88605000D02*
X152947000Y-88605000D01*
X152947000Y-88605000D02*
X155702000Y-91360000D01*
X161370000Y-76962000D02*
X161036000Y-76962000D01*
X161036000Y-76962000D02*
X160274000Y-77724000D01*
X160274000Y-77724000D02*
X160274000Y-80264000D01*
X161350000Y-80010000D02*
X160528000Y-80010000D01*
X159893000Y-82423000D02*
X159893000Y-83406000D01*
X160274000Y-82042000D02*
X159893000Y-82423000D01*
X160274000Y-80264000D02*
X160274000Y-82042000D01*
X160528000Y-80010000D02*
X160274000Y-80264000D01*
X165616000Y-85578000D02*
X164826000Y-85578000D01*
X164084000Y-84836000D02*
X164084000Y-84582000D01*
X164826000Y-85578000D02*
X164084000Y-84836000D01*
X165616000Y-86078000D02*
X164564000Y-86078000D01*
X164564000Y-86078000D02*
X164084000Y-85852000D01*
X152433333Y-80985000D02*
X153121000Y-80985000D01*
X165616000Y-86578000D02*
X164628000Y-86578000D01*
X164628000Y-86578000D02*
X164084000Y-87630000D01*
X165616000Y-83078000D02*
X166644000Y-83078000D01*
X166644000Y-83078000D02*
X168656000Y-83566000D01*
X158623000Y-88806000D02*
X158623000Y-94615000D01*
X158623000Y-94615000D02*
X159222000Y-95214000D01*
X159222000Y-95214000D02*
X159860000Y-95214000D01*
X159893000Y-88806000D02*
X159893000Y-91981000D01*
X159893000Y-91981000D02*
X159860000Y-92014000D01*
D23*
G36*
X170003000Y-97105000D02*
X153626106Y-97105000D01*
X153834387Y-96793285D01*
X153947426Y-96225000D01*
X153834387Y-95656715D01*
X153512480Y-95174946D01*
X153183307Y-94955000D01*
X153512480Y-94735054D01*
X153772604Y-94345750D01*
X154417000Y-94345750D01*
X154417000Y-94936309D01*
X154513673Y-95169698D01*
X154692301Y-95348327D01*
X154925690Y-95445000D01*
X155416250Y-95445000D01*
X155575000Y-95286250D01*
X155575000Y-94187000D01*
X155829000Y-94187000D01*
X155829000Y-95286250D01*
X155987750Y-95445000D01*
X156478310Y-95445000D01*
X156711699Y-95348327D01*
X156890327Y-95169698D01*
X156987000Y-94936309D01*
X156987000Y-94345750D01*
X156828250Y-94187000D01*
X155829000Y-94187000D01*
X155575000Y-94187000D01*
X154575750Y-94187000D01*
X154417000Y-94345750D01*
X153772604Y-94345750D01*
X153834387Y-94253285D01*
X153947426Y-93685000D01*
X153834387Y-93116715D01*
X153512480Y-92634946D01*
X153183307Y-92415000D01*
X153512480Y-92195054D01*
X153834387Y-91713285D01*
X153947426Y-91145000D01*
X153834387Y-90576715D01*
X153676235Y-90340024D01*
X154404560Y-91068349D01*
X154404560Y-92110000D01*
X154448838Y-92345317D01*
X154587910Y-92561441D01*
X154800110Y-92706431D01*
X154833490Y-92713191D01*
X154692301Y-92771673D01*
X154513673Y-92950302D01*
X154417000Y-93183691D01*
X154417000Y-93774250D01*
X154575750Y-93933000D01*
X155575000Y-93933000D01*
X155575000Y-93913000D01*
X155829000Y-93913000D01*
X155829000Y-93933000D01*
X156828250Y-93933000D01*
X156987000Y-93774250D01*
X156987000Y-93183691D01*
X156890327Y-92950302D01*
X156711699Y-92771673D01*
X156575713Y-92715346D01*
X156587317Y-92713162D01*
X156803441Y-92574090D01*
X156948431Y-92361890D01*
X156999440Y-92110000D01*
X156999440Y-92071200D01*
X157052000Y-92071200D01*
X157324165Y-92017063D01*
X157554894Y-91862894D01*
X157911800Y-91505989D01*
X157911800Y-94615000D01*
X157965937Y-94887165D01*
X158120106Y-95117894D01*
X158562560Y-95560348D01*
X158562560Y-96164000D01*
X158606838Y-96399317D01*
X158745910Y-96615441D01*
X158958110Y-96760431D01*
X159210000Y-96811440D01*
X160510000Y-96811440D01*
X160745317Y-96767162D01*
X160961441Y-96628090D01*
X161106431Y-96415890D01*
X161157440Y-96164000D01*
X161157440Y-94264000D01*
X164062560Y-94264000D01*
X164062560Y-96164000D01*
X164106838Y-96399317D01*
X164245910Y-96615441D01*
X164458110Y-96760431D01*
X164710000Y-96811440D01*
X166010000Y-96811440D01*
X166245317Y-96767162D01*
X166461441Y-96628090D01*
X166606431Y-96415890D01*
X166657440Y-96164000D01*
X166657440Y-94264000D01*
X166613162Y-94028683D01*
X166474090Y-93812559D01*
X166261890Y-93667569D01*
X166010000Y-93616560D01*
X164710000Y-93616560D01*
X164474683Y-93660838D01*
X164258559Y-93799910D01*
X164113569Y-94012110D01*
X164062560Y-94264000D01*
X161157440Y-94264000D01*
X161113162Y-94028683D01*
X160974090Y-93812559D01*
X160761890Y-93667569D01*
X160510000Y-93616560D01*
X159334200Y-93616560D01*
X159334200Y-93611440D01*
X160510000Y-93611440D01*
X160745317Y-93567162D01*
X160961441Y-93428090D01*
X161106431Y-93215890D01*
X161157440Y-92964000D01*
X161157440Y-91064000D01*
X164062560Y-91064000D01*
X164062560Y-92964000D01*
X164106838Y-93199317D01*
X164245910Y-93415441D01*
X164458110Y-93560431D01*
X164710000Y-93611440D01*
X166010000Y-93611440D01*
X166245317Y-93567162D01*
X166461441Y-93428090D01*
X166606431Y-93215890D01*
X166657440Y-92964000D01*
X166657440Y-91064000D01*
X166613162Y-90828683D01*
X166474090Y-90612559D01*
X166261890Y-90467569D01*
X166010000Y-90416560D01*
X164710000Y-90416560D01*
X164474683Y-90460838D01*
X164258559Y-90599910D01*
X164113569Y-90812110D01*
X164062560Y-91064000D01*
X161157440Y-91064000D01*
X161113162Y-90828683D01*
X160974090Y-90612559D01*
X160761890Y-90467569D01*
X160604200Y-90435636D01*
X160604200Y-90172710D01*
X160611110Y-90177431D01*
X160863000Y-90228440D01*
X161463000Y-90228440D01*
X161698317Y-90184162D01*
X161797528Y-90120322D01*
X161881110Y-90177431D01*
X162133000Y-90228440D01*
X162733000Y-90228440D01*
X162968317Y-90184162D01*
X163179553Y-90048235D01*
X163380630Y-90131730D01*
X163769663Y-90132069D01*
X164129212Y-89983507D01*
X164404540Y-89708659D01*
X164553730Y-89349370D01*
X164554069Y-88960337D01*
X164405507Y-88600788D01*
X164373320Y-88568545D01*
X164637212Y-88459507D01*
X164912540Y-88184659D01*
X165039876Y-87878000D01*
X167018560Y-87878000D01*
X167018560Y-89878000D01*
X167062838Y-90113317D01*
X167201910Y-90329441D01*
X167414110Y-90474431D01*
X167666000Y-90525440D01*
X168966000Y-90525440D01*
X169201317Y-90481162D01*
X169417441Y-90342090D01*
X169562431Y-90129890D01*
X169613440Y-89878000D01*
X169613440Y-87878000D01*
X169569162Y-87642683D01*
X169430090Y-87426559D01*
X169217890Y-87281569D01*
X168966000Y-87230560D01*
X167666000Y-87230560D01*
X167430683Y-87274838D01*
X167214559Y-87413910D01*
X167069569Y-87626110D01*
X167018560Y-87878000D01*
X165039876Y-87878000D01*
X165061730Y-87825370D01*
X165062069Y-87436337D01*
X165029685Y-87357961D01*
X165116000Y-87375440D01*
X166116000Y-87375440D01*
X166351317Y-87331162D01*
X166567441Y-87192090D01*
X166712431Y-86979890D01*
X166763440Y-86728000D01*
X166763440Y-86428000D01*
X166743933Y-86324329D01*
X166763440Y-86228000D01*
X166763440Y-86067800D01*
X167071663Y-86068069D01*
X167431212Y-85919507D01*
X167706540Y-85644659D01*
X167855730Y-85285370D01*
X167856069Y-84896337D01*
X167707507Y-84536788D01*
X167432659Y-84261460D01*
X167073370Y-84112270D01*
X166684337Y-84111931D01*
X166674143Y-84116143D01*
X166658344Y-84078000D01*
X166751000Y-83854309D01*
X166751000Y-83835773D01*
X167816122Y-84094113D01*
X167826493Y-84119212D01*
X168101341Y-84394540D01*
X168460630Y-84543730D01*
X168849663Y-84544069D01*
X169209212Y-84395507D01*
X169484540Y-84120659D01*
X169633730Y-83761370D01*
X169634069Y-83372337D01*
X169485507Y-83012788D01*
X169210659Y-82737460D01*
X168851370Y-82588270D01*
X168462337Y-82587931D01*
X168158439Y-82713499D01*
X168109768Y-82701694D01*
X168110069Y-82356337D01*
X167961507Y-81996788D01*
X167686659Y-81721460D01*
X167327370Y-81572270D01*
X166938337Y-81571931D01*
X166703815Y-81668833D01*
X166580090Y-81476559D01*
X166367890Y-81331569D01*
X166116000Y-81280560D01*
X165116000Y-81280560D01*
X164880683Y-81324838D01*
X164664559Y-81463910D01*
X164519569Y-81676110D01*
X164468560Y-81928000D01*
X164468560Y-82228000D01*
X164488067Y-82331671D01*
X164468560Y-82428000D01*
X164468560Y-82728000D01*
X164488067Y-82831671D01*
X164468560Y-82928000D01*
X164468560Y-83228000D01*
X164481981Y-83299324D01*
X164481000Y-83301691D01*
X164481000Y-83344250D01*
X164492621Y-83355871D01*
X164512838Y-83463317D01*
X164579329Y-83566646D01*
X164577673Y-83568302D01*
X164521183Y-83704680D01*
X164279370Y-83604270D01*
X163890337Y-83603931D01*
X163530788Y-83752493D01*
X163380440Y-83902579D01*
X163380440Y-82631000D01*
X163336162Y-82395683D01*
X163197090Y-82179559D01*
X162984890Y-82034569D01*
X162733000Y-81983560D01*
X162133000Y-81983560D01*
X161897683Y-82027838D01*
X161798472Y-82091678D01*
X161714890Y-82034569D01*
X161463000Y-81983560D01*
X160985200Y-81983560D01*
X160985200Y-81507440D01*
X162100000Y-81507440D01*
X162335317Y-81463162D01*
X162551441Y-81324090D01*
X162696431Y-81111890D01*
X162747440Y-80860000D01*
X162747440Y-80479842D01*
X163007663Y-80480069D01*
X163367212Y-80331507D01*
X163642540Y-80056659D01*
X163791730Y-79697370D01*
X163792069Y-79308337D01*
X163643507Y-78948788D01*
X163473017Y-78778000D01*
X167018560Y-78778000D01*
X167018560Y-80778000D01*
X167062838Y-81013317D01*
X167201910Y-81229441D01*
X167414110Y-81374431D01*
X167666000Y-81425440D01*
X168966000Y-81425440D01*
X169201317Y-81381162D01*
X169417441Y-81242090D01*
X169562431Y-81029890D01*
X169613440Y-80778000D01*
X169613440Y-78778000D01*
X169569162Y-78542683D01*
X169430090Y-78326559D01*
X169217890Y-78181569D01*
X168966000Y-78130560D01*
X167666000Y-78130560D01*
X167430683Y-78174838D01*
X167214559Y-78313910D01*
X167069569Y-78526110D01*
X167018560Y-78778000D01*
X163473017Y-78778000D01*
X163368659Y-78673460D01*
X163009370Y-78524270D01*
X162620337Y-78523931D01*
X162416901Y-78607989D01*
X162351890Y-78563569D01*
X162100000Y-78512560D01*
X160985200Y-78512560D01*
X160985200Y-78259440D01*
X162120000Y-78259440D01*
X162355317Y-78215162D01*
X162571441Y-78076090D01*
X162716431Y-77863890D01*
X162767440Y-77612000D01*
X162767440Y-76312000D01*
X162723162Y-76076683D01*
X162584090Y-75860559D01*
X162371890Y-75715569D01*
X162120000Y-75664560D01*
X160620000Y-75664560D01*
X160384683Y-75708838D01*
X160168559Y-75847910D01*
X160023569Y-76060110D01*
X160016809Y-76093490D01*
X159958327Y-75952301D01*
X159779698Y-75773673D01*
X159546309Y-75677000D01*
X158955750Y-75677000D01*
X158797000Y-75835750D01*
X158797000Y-76835000D01*
X158817000Y-76835000D01*
X158817000Y-77089000D01*
X158797000Y-77089000D01*
X158797000Y-78088250D01*
X158955750Y-78247000D01*
X159546309Y-78247000D01*
X159562800Y-78240169D01*
X159562800Y-78537428D01*
X159440000Y-78512560D01*
X157940000Y-78512560D01*
X157704683Y-78556838D01*
X157488559Y-78695910D01*
X157382882Y-78850573D01*
X157373105Y-78857106D01*
X157347231Y-78882981D01*
X157311250Y-78847000D01*
X156337000Y-78847000D01*
X156337000Y-78867000D01*
X156083000Y-78867000D01*
X156083000Y-78847000D01*
X155108750Y-78847000D01*
X154950000Y-79005750D01*
X154950000Y-79596309D01*
X155046673Y-79829698D01*
X155225301Y-80008327D01*
X155458690Y-80105000D01*
X155830638Y-80105000D01*
X155740270Y-80322630D01*
X155739931Y-80711663D01*
X155888493Y-81071212D01*
X156163341Y-81346540D01*
X156522630Y-81495730D01*
X156911663Y-81496069D01*
X157271212Y-81347507D01*
X157400962Y-81217983D01*
X157401673Y-81219699D01*
X157580302Y-81398327D01*
X157813691Y-81495000D01*
X158404250Y-81495000D01*
X158563000Y-81336250D01*
X158563000Y-80760000D01*
X158543000Y-80760000D01*
X158543000Y-80560000D01*
X158563000Y-80560000D01*
X158563000Y-80513000D01*
X158817000Y-80513000D01*
X158817000Y-80560000D01*
X158837000Y-80560000D01*
X158837000Y-80760000D01*
X158817000Y-80760000D01*
X158817000Y-81336250D01*
X158975750Y-81495000D01*
X159562800Y-81495000D01*
X159562800Y-81747412D01*
X159390106Y-81920106D01*
X159288281Y-82072497D01*
X159267020Y-82086178D01*
X159049310Y-81996000D01*
X158908750Y-81996000D01*
X158750000Y-82154750D01*
X158750000Y-83279000D01*
X158770000Y-83279000D01*
X158770000Y-83533000D01*
X158750000Y-83533000D01*
X158750000Y-84657250D01*
X158908750Y-84816000D01*
X159049310Y-84816000D01*
X159266122Y-84726194D01*
X159341110Y-84777431D01*
X159593000Y-84828440D01*
X160193000Y-84828440D01*
X160428317Y-84784162D01*
X160451800Y-84769051D01*
X160451800Y-86192411D01*
X160233412Y-86410800D01*
X157988000Y-86410800D01*
X157715835Y-86464937D01*
X157485106Y-86619106D01*
X156987000Y-87117212D01*
X156987000Y-86565750D01*
X156828250Y-86407000D01*
X155829000Y-86407000D01*
X155829000Y-86427000D01*
X155575000Y-86427000D01*
X155575000Y-86407000D01*
X154575750Y-86407000D01*
X154417000Y-86565750D01*
X154417000Y-87156309D01*
X154513673Y-87389698D01*
X154692301Y-87568327D01*
X154828287Y-87624654D01*
X154816683Y-87626838D01*
X154729030Y-87683241D01*
X153772177Y-86726389D01*
X153834387Y-86633285D01*
X153947426Y-86065000D01*
X153834387Y-85496715D01*
X153772231Y-85403691D01*
X154417000Y-85403691D01*
X154417000Y-85994250D01*
X154575750Y-86153000D01*
X155575000Y-86153000D01*
X155575000Y-85053750D01*
X155829000Y-85053750D01*
X155829000Y-86153000D01*
X156828250Y-86153000D01*
X156987000Y-85994250D01*
X156987000Y-85403691D01*
X156890327Y-85170302D01*
X156711699Y-84991673D01*
X156478310Y-84895000D01*
X155987750Y-84895000D01*
X155829000Y-85053750D01*
X155575000Y-85053750D01*
X155416250Y-84895000D01*
X154925690Y-84895000D01*
X154692301Y-84991673D01*
X154513673Y-85170302D01*
X154417000Y-85403691D01*
X153772231Y-85403691D01*
X153512480Y-85014946D01*
X153183307Y-84795000D01*
X153512480Y-84575054D01*
X153834387Y-84093285D01*
X153914257Y-83691750D01*
X157688000Y-83691750D01*
X157688000Y-84307309D01*
X157784673Y-84540698D01*
X157963301Y-84719327D01*
X158196690Y-84816000D01*
X158337250Y-84816000D01*
X158496000Y-84657250D01*
X158496000Y-83533000D01*
X157846750Y-83533000D01*
X157688000Y-83691750D01*
X153914257Y-83691750D01*
X153947426Y-83525000D01*
X153834387Y-82956715D01*
X153532355Y-82504691D01*
X157688000Y-82504691D01*
X157688000Y-83120250D01*
X157846750Y-83279000D01*
X158496000Y-83279000D01*
X158496000Y-82154750D01*
X158337250Y-81996000D01*
X158196690Y-81996000D01*
X157963301Y-82092673D01*
X157784673Y-82271302D01*
X157688000Y-82504691D01*
X153532355Y-82504691D01*
X153512480Y-82474946D01*
X153183307Y-82255000D01*
X153512480Y-82035054D01*
X153834387Y-81553285D01*
X153947426Y-80985000D01*
X153834387Y-80416715D01*
X153512480Y-79934946D01*
X153183307Y-79715000D01*
X153512480Y-79495054D01*
X153834387Y-79013285D01*
X153947426Y-78445000D01*
X153834387Y-77876715D01*
X153512480Y-77394946D01*
X153171780Y-77167298D01*
X153314691Y-77100183D01*
X153704978Y-76671924D01*
X153874809Y-76261890D01*
X153753488Y-76032000D01*
X152560333Y-76032000D01*
X152560333Y-76052000D01*
X152306333Y-76052000D01*
X152306333Y-76032000D01*
X151113178Y-76032000D01*
X150991857Y-76261890D01*
X151161688Y-76671924D01*
X151551975Y-77100183D01*
X151694886Y-77167298D01*
X151354186Y-77394946D01*
X151032279Y-77876715D01*
X150919240Y-78445000D01*
X151032279Y-79013285D01*
X151354186Y-79495054D01*
X151683359Y-79715000D01*
X151354186Y-79934946D01*
X151032279Y-80416715D01*
X150919240Y-80985000D01*
X151032279Y-81553285D01*
X151354186Y-82035054D01*
X151683359Y-82255000D01*
X151354186Y-82474946D01*
X151032279Y-82956715D01*
X150919240Y-83525000D01*
X151032279Y-84093285D01*
X151354186Y-84575054D01*
X151683359Y-84795000D01*
X151354186Y-85014946D01*
X151032279Y-85496715D01*
X150919240Y-86065000D01*
X151032279Y-86633285D01*
X151354186Y-87115054D01*
X151683359Y-87335000D01*
X151354186Y-87554946D01*
X151032279Y-88036715D01*
X150919240Y-88605000D01*
X151032279Y-89173285D01*
X151354186Y-89655054D01*
X151683359Y-89875000D01*
X151354186Y-90094946D01*
X151032279Y-90576715D01*
X150919240Y-91145000D01*
X151032279Y-91713285D01*
X151354186Y-92195054D01*
X151683359Y-92415000D01*
X151354186Y-92634946D01*
X151032279Y-93116715D01*
X150919240Y-93685000D01*
X151032279Y-94253285D01*
X151354186Y-94735054D01*
X151683359Y-94955000D01*
X151354186Y-95174946D01*
X151032279Y-95656715D01*
X150919240Y-96225000D01*
X151032279Y-96793285D01*
X151240560Y-97105000D01*
X148005000Y-97105000D01*
X148005000Y-73650750D01*
X150948333Y-73650750D01*
X150948333Y-74341310D01*
X151045006Y-74574699D01*
X151223635Y-74753327D01*
X151433211Y-74840136D01*
X151161688Y-75138076D01*
X150991857Y-75548110D01*
X151113178Y-75778000D01*
X152306333Y-75778000D01*
X152306333Y-73492000D01*
X152560333Y-73492000D01*
X152560333Y-75778000D01*
X153753488Y-75778000D01*
X153874809Y-75548110D01*
X153842457Y-75470000D01*
X154937560Y-75470000D01*
X154937560Y-76970000D01*
X154981838Y-77205317D01*
X155120910Y-77421441D01*
X155189006Y-77467969D01*
X155046673Y-77610302D01*
X154950000Y-77843691D01*
X154950000Y-78434250D01*
X155108750Y-78593000D01*
X156083000Y-78593000D01*
X156083000Y-78573000D01*
X156337000Y-78573000D01*
X156337000Y-78593000D01*
X157311250Y-78593000D01*
X157470000Y-78434250D01*
X157470000Y-78060026D01*
X157560302Y-78150327D01*
X157793691Y-78247000D01*
X158384250Y-78247000D01*
X158543000Y-78088250D01*
X158543000Y-77089000D01*
X158523000Y-77089000D01*
X158523000Y-76835000D01*
X158543000Y-76835000D01*
X158543000Y-75835750D01*
X158384250Y-75677000D01*
X157793691Y-75677000D01*
X157560302Y-75773673D01*
X157482440Y-75851535D01*
X157482440Y-75470000D01*
X157438162Y-75234683D01*
X157299090Y-75018559D01*
X157086890Y-74873569D01*
X156921200Y-74840016D01*
X156921200Y-74077794D01*
X157038540Y-73960659D01*
X157187730Y-73601370D01*
X157188069Y-73212337D01*
X157039507Y-72852788D01*
X156764659Y-72577460D01*
X156405370Y-72428270D01*
X156016337Y-72427931D01*
X155656788Y-72576493D01*
X155381460Y-72851341D01*
X155232270Y-73210630D01*
X155231931Y-73599663D01*
X155380493Y-73959212D01*
X155498800Y-74077726D01*
X155498800Y-74838780D01*
X155349683Y-74866838D01*
X155133559Y-75005910D01*
X154988569Y-75218110D01*
X154937560Y-75470000D01*
X153842457Y-75470000D01*
X153704978Y-75138076D01*
X153433455Y-74840136D01*
X153643031Y-74753327D01*
X153821660Y-74574699D01*
X153918333Y-74341310D01*
X153918333Y-73650750D01*
X153759583Y-73492000D01*
X152560333Y-73492000D01*
X152306333Y-73492000D01*
X151107083Y-73492000D01*
X150948333Y-73650750D01*
X148005000Y-73650750D01*
X148005000Y-72388690D01*
X150948333Y-72388690D01*
X150948333Y-73079250D01*
X151107083Y-73238000D01*
X152306333Y-73238000D01*
X152306333Y-72038750D01*
X152560333Y-72038750D01*
X152560333Y-73238000D01*
X153759583Y-73238000D01*
X153918333Y-73079250D01*
X153918333Y-72388690D01*
X153821660Y-72155301D01*
X153643031Y-71976673D01*
X153409642Y-71880000D01*
X152719083Y-71880000D01*
X152560333Y-72038750D01*
X152306333Y-72038750D01*
X152147583Y-71880000D01*
X151457024Y-71880000D01*
X151223635Y-71976673D01*
X151045006Y-72155301D01*
X150948333Y-72388690D01*
X148005000Y-72388690D01*
X148005000Y-71805000D01*
X170003000Y-71805000D01*
X170003000Y-97105000D01*
X170003000Y-97105000D01*
G37*
X170003000Y-97105000D02*
X153626106Y-97105000D01*
X153834387Y-96793285D01*
X153947426Y-96225000D01*
X153834387Y-95656715D01*
X153512480Y-95174946D01*
X153183307Y-94955000D01*
X153512480Y-94735054D01*
X153772604Y-94345750D01*
X154417000Y-94345750D01*
X154417000Y-94936309D01*
X154513673Y-95169698D01*
X154692301Y-95348327D01*
X154925690Y-95445000D01*
X155416250Y-95445000D01*
X155575000Y-95286250D01*
X155575000Y-94187000D01*
X155829000Y-94187000D01*
X155829000Y-95286250D01*
X155987750Y-95445000D01*
X156478310Y-95445000D01*
X156711699Y-95348327D01*
X156890327Y-95169698D01*
X156987000Y-94936309D01*
X156987000Y-94345750D01*
X156828250Y-94187000D01*
X155829000Y-94187000D01*
X155575000Y-94187000D01*
X154575750Y-94187000D01*
X154417000Y-94345750D01*
X153772604Y-94345750D01*
X153834387Y-94253285D01*
X153947426Y-93685000D01*
X153834387Y-93116715D01*
X153512480Y-92634946D01*
X153183307Y-92415000D01*
X153512480Y-92195054D01*
X153834387Y-91713285D01*
X153947426Y-91145000D01*
X153834387Y-90576715D01*
X153676235Y-90340024D01*
X154404560Y-91068349D01*
X154404560Y-92110000D01*
X154448838Y-92345317D01*
X154587910Y-92561441D01*
X154800110Y-92706431D01*
X154833490Y-92713191D01*
X154692301Y-92771673D01*
X154513673Y-92950302D01*
X154417000Y-93183691D01*
X154417000Y-93774250D01*
X154575750Y-93933000D01*
X155575000Y-93933000D01*
X155575000Y-93913000D01*
X155829000Y-93913000D01*
X155829000Y-93933000D01*
X156828250Y-93933000D01*
X156987000Y-93774250D01*
X156987000Y-93183691D01*
X156890327Y-92950302D01*
X156711699Y-92771673D01*
X156575713Y-92715346D01*
X156587317Y-92713162D01*
X156803441Y-92574090D01*
X156948431Y-92361890D01*
X156999440Y-92110000D01*
X156999440Y-92071200D01*
X157052000Y-92071200D01*
X157324165Y-92017063D01*
X157554894Y-91862894D01*
X157911800Y-91505989D01*
X157911800Y-94615000D01*
X157965937Y-94887165D01*
X158120106Y-95117894D01*
X158562560Y-95560348D01*
X158562560Y-96164000D01*
X158606838Y-96399317D01*
X158745910Y-96615441D01*
X158958110Y-96760431D01*
X159210000Y-96811440D01*
X160510000Y-96811440D01*
X160745317Y-96767162D01*
X160961441Y-96628090D01*
X161106431Y-96415890D01*
X161157440Y-96164000D01*
X161157440Y-94264000D01*
X164062560Y-94264000D01*
X164062560Y-96164000D01*
X164106838Y-96399317D01*
X164245910Y-96615441D01*
X164458110Y-96760431D01*
X164710000Y-96811440D01*
X166010000Y-96811440D01*
X166245317Y-96767162D01*
X166461441Y-96628090D01*
X166606431Y-96415890D01*
X166657440Y-96164000D01*
X166657440Y-94264000D01*
X166613162Y-94028683D01*
X166474090Y-93812559D01*
X166261890Y-93667569D01*
X166010000Y-93616560D01*
X164710000Y-93616560D01*
X164474683Y-93660838D01*
X164258559Y-93799910D01*
X164113569Y-94012110D01*
X164062560Y-94264000D01*
X161157440Y-94264000D01*
X161113162Y-94028683D01*
X160974090Y-93812559D01*
X160761890Y-93667569D01*
X160510000Y-93616560D01*
X159334200Y-93616560D01*
X159334200Y-93611440D01*
X160510000Y-93611440D01*
X160745317Y-93567162D01*
X160961441Y-93428090D01*
X161106431Y-93215890D01*
X161157440Y-92964000D01*
X161157440Y-91064000D01*
X164062560Y-91064000D01*
X164062560Y-92964000D01*
X164106838Y-93199317D01*
X164245910Y-93415441D01*
X164458110Y-93560431D01*
X164710000Y-93611440D01*
X166010000Y-93611440D01*
X166245317Y-93567162D01*
X166461441Y-93428090D01*
X166606431Y-93215890D01*
X166657440Y-92964000D01*
X166657440Y-91064000D01*
X166613162Y-90828683D01*
X166474090Y-90612559D01*
X166261890Y-90467569D01*
X166010000Y-90416560D01*
X164710000Y-90416560D01*
X164474683Y-90460838D01*
X164258559Y-90599910D01*
X164113569Y-90812110D01*
X164062560Y-91064000D01*
X161157440Y-91064000D01*
X161113162Y-90828683D01*
X160974090Y-90612559D01*
X160761890Y-90467569D01*
X160604200Y-90435636D01*
X160604200Y-90172710D01*
X160611110Y-90177431D01*
X160863000Y-90228440D01*
X161463000Y-90228440D01*
X161698317Y-90184162D01*
X161797528Y-90120322D01*
X161881110Y-90177431D01*
X162133000Y-90228440D01*
X162733000Y-90228440D01*
X162968317Y-90184162D01*
X163179553Y-90048235D01*
X163380630Y-90131730D01*
X163769663Y-90132069D01*
X164129212Y-89983507D01*
X164404540Y-89708659D01*
X164553730Y-89349370D01*
X164554069Y-88960337D01*
X164405507Y-88600788D01*
X164373320Y-88568545D01*
X164637212Y-88459507D01*
X164912540Y-88184659D01*
X165039876Y-87878000D01*
X167018560Y-87878000D01*
X167018560Y-89878000D01*
X167062838Y-90113317D01*
X167201910Y-90329441D01*
X167414110Y-90474431D01*
X167666000Y-90525440D01*
X168966000Y-90525440D01*
X169201317Y-90481162D01*
X169417441Y-90342090D01*
X169562431Y-90129890D01*
X169613440Y-89878000D01*
X169613440Y-87878000D01*
X169569162Y-87642683D01*
X169430090Y-87426559D01*
X169217890Y-87281569D01*
X168966000Y-87230560D01*
X167666000Y-87230560D01*
X167430683Y-87274838D01*
X167214559Y-87413910D01*
X167069569Y-87626110D01*
X167018560Y-87878000D01*
X165039876Y-87878000D01*
X165061730Y-87825370D01*
X165062069Y-87436337D01*
X165029685Y-87357961D01*
X165116000Y-87375440D01*
X166116000Y-87375440D01*
X166351317Y-87331162D01*
X166567441Y-87192090D01*
X166712431Y-86979890D01*
X166763440Y-86728000D01*
X166763440Y-86428000D01*
X166743933Y-86324329D01*
X166763440Y-86228000D01*
X166763440Y-86067800D01*
X167071663Y-86068069D01*
X167431212Y-85919507D01*
X167706540Y-85644659D01*
X167855730Y-85285370D01*
X167856069Y-84896337D01*
X167707507Y-84536788D01*
X167432659Y-84261460D01*
X167073370Y-84112270D01*
X166684337Y-84111931D01*
X166674143Y-84116143D01*
X166658344Y-84078000D01*
X166751000Y-83854309D01*
X166751000Y-83835773D01*
X167816122Y-84094113D01*
X167826493Y-84119212D01*
X168101341Y-84394540D01*
X168460630Y-84543730D01*
X168849663Y-84544069D01*
X169209212Y-84395507D01*
X169484540Y-84120659D01*
X169633730Y-83761370D01*
X169634069Y-83372337D01*
X169485507Y-83012788D01*
X169210659Y-82737460D01*
X168851370Y-82588270D01*
X168462337Y-82587931D01*
X168158439Y-82713499D01*
X168109768Y-82701694D01*
X168110069Y-82356337D01*
X167961507Y-81996788D01*
X167686659Y-81721460D01*
X167327370Y-81572270D01*
X166938337Y-81571931D01*
X166703815Y-81668833D01*
X166580090Y-81476559D01*
X166367890Y-81331569D01*
X166116000Y-81280560D01*
X165116000Y-81280560D01*
X164880683Y-81324838D01*
X164664559Y-81463910D01*
X164519569Y-81676110D01*
X164468560Y-81928000D01*
X164468560Y-82228000D01*
X164488067Y-82331671D01*
X164468560Y-82428000D01*
X164468560Y-82728000D01*
X164488067Y-82831671D01*
X164468560Y-82928000D01*
X164468560Y-83228000D01*
X164481981Y-83299324D01*
X164481000Y-83301691D01*
X164481000Y-83344250D01*
X164492621Y-83355871D01*
X164512838Y-83463317D01*
X164579329Y-83566646D01*
X164577673Y-83568302D01*
X164521183Y-83704680D01*
X164279370Y-83604270D01*
X163890337Y-83603931D01*
X163530788Y-83752493D01*
X163380440Y-83902579D01*
X163380440Y-82631000D01*
X163336162Y-82395683D01*
X163197090Y-82179559D01*
X162984890Y-82034569D01*
X162733000Y-81983560D01*
X162133000Y-81983560D01*
X161897683Y-82027838D01*
X161798472Y-82091678D01*
X161714890Y-82034569D01*
X161463000Y-81983560D01*
X160985200Y-81983560D01*
X160985200Y-81507440D01*
X162100000Y-81507440D01*
X162335317Y-81463162D01*
X162551441Y-81324090D01*
X162696431Y-81111890D01*
X162747440Y-80860000D01*
X162747440Y-80479842D01*
X163007663Y-80480069D01*
X163367212Y-80331507D01*
X163642540Y-80056659D01*
X163791730Y-79697370D01*
X163792069Y-79308337D01*
X163643507Y-78948788D01*
X163473017Y-78778000D01*
X167018560Y-78778000D01*
X167018560Y-80778000D01*
X167062838Y-81013317D01*
X167201910Y-81229441D01*
X167414110Y-81374431D01*
X167666000Y-81425440D01*
X168966000Y-81425440D01*
X169201317Y-81381162D01*
X169417441Y-81242090D01*
X169562431Y-81029890D01*
X169613440Y-80778000D01*
X169613440Y-78778000D01*
X169569162Y-78542683D01*
X169430090Y-78326559D01*
X169217890Y-78181569D01*
X168966000Y-78130560D01*
X167666000Y-78130560D01*
X167430683Y-78174838D01*
X167214559Y-78313910D01*
X167069569Y-78526110D01*
X167018560Y-78778000D01*
X163473017Y-78778000D01*
X163368659Y-78673460D01*
X163009370Y-78524270D01*
X162620337Y-78523931D01*
X162416901Y-78607989D01*
X162351890Y-78563569D01*
X162100000Y-78512560D01*
X160985200Y-78512560D01*
X160985200Y-78259440D01*
X162120000Y-78259440D01*
X162355317Y-78215162D01*
X162571441Y-78076090D01*
X162716431Y-77863890D01*
X162767440Y-77612000D01*
X162767440Y-76312000D01*
X162723162Y-76076683D01*
X162584090Y-75860559D01*
X162371890Y-75715569D01*
X162120000Y-75664560D01*
X160620000Y-75664560D01*
X160384683Y-75708838D01*
X160168559Y-75847910D01*
X160023569Y-76060110D01*
X160016809Y-76093490D01*
X159958327Y-75952301D01*
X159779698Y-75773673D01*
X159546309Y-75677000D01*
X158955750Y-75677000D01*
X158797000Y-75835750D01*
X158797000Y-76835000D01*
X158817000Y-76835000D01*
X158817000Y-77089000D01*
X158797000Y-77089000D01*
X158797000Y-78088250D01*
X158955750Y-78247000D01*
X159546309Y-78247000D01*
X159562800Y-78240169D01*
X159562800Y-78537428D01*
X159440000Y-78512560D01*
X157940000Y-78512560D01*
X157704683Y-78556838D01*
X157488559Y-78695910D01*
X157382882Y-78850573D01*
X157373105Y-78857106D01*
X157347231Y-78882981D01*
X157311250Y-78847000D01*
X156337000Y-78847000D01*
X156337000Y-78867000D01*
X156083000Y-78867000D01*
X156083000Y-78847000D01*
X155108750Y-78847000D01*
X154950000Y-79005750D01*
X154950000Y-79596309D01*
X155046673Y-79829698D01*
X155225301Y-80008327D01*
X155458690Y-80105000D01*
X155830638Y-80105000D01*
X155740270Y-80322630D01*
X155739931Y-80711663D01*
X155888493Y-81071212D01*
X156163341Y-81346540D01*
X156522630Y-81495730D01*
X156911663Y-81496069D01*
X157271212Y-81347507D01*
X157400962Y-81217983D01*
X157401673Y-81219699D01*
X157580302Y-81398327D01*
X157813691Y-81495000D01*
X158404250Y-81495000D01*
X158563000Y-81336250D01*
X158563000Y-80760000D01*
X158543000Y-80760000D01*
X158543000Y-80560000D01*
X158563000Y-80560000D01*
X158563000Y-80513000D01*
X158817000Y-80513000D01*
X158817000Y-80560000D01*
X158837000Y-80560000D01*
X158837000Y-80760000D01*
X158817000Y-80760000D01*
X158817000Y-81336250D01*
X158975750Y-81495000D01*
X159562800Y-81495000D01*
X159562800Y-81747412D01*
X159390106Y-81920106D01*
X159288281Y-82072497D01*
X159267020Y-82086178D01*
X159049310Y-81996000D01*
X158908750Y-81996000D01*
X158750000Y-82154750D01*
X158750000Y-83279000D01*
X158770000Y-83279000D01*
X158770000Y-83533000D01*
X158750000Y-83533000D01*
X158750000Y-84657250D01*
X158908750Y-84816000D01*
X159049310Y-84816000D01*
X159266122Y-84726194D01*
X159341110Y-84777431D01*
X159593000Y-84828440D01*
X160193000Y-84828440D01*
X160428317Y-84784162D01*
X160451800Y-84769051D01*
X160451800Y-86192411D01*
X160233412Y-86410800D01*
X157988000Y-86410800D01*
X157715835Y-86464937D01*
X157485106Y-86619106D01*
X156987000Y-87117212D01*
X156987000Y-86565750D01*
X156828250Y-86407000D01*
X155829000Y-86407000D01*
X155829000Y-86427000D01*
X155575000Y-86427000D01*
X155575000Y-86407000D01*
X154575750Y-86407000D01*
X154417000Y-86565750D01*
X154417000Y-87156309D01*
X154513673Y-87389698D01*
X154692301Y-87568327D01*
X154828287Y-87624654D01*
X154816683Y-87626838D01*
X154729030Y-87683241D01*
X153772177Y-86726389D01*
X153834387Y-86633285D01*
X153947426Y-86065000D01*
X153834387Y-85496715D01*
X153772231Y-85403691D01*
X154417000Y-85403691D01*
X154417000Y-85994250D01*
X154575750Y-86153000D01*
X155575000Y-86153000D01*
X155575000Y-85053750D01*
X155829000Y-85053750D01*
X155829000Y-86153000D01*
X156828250Y-86153000D01*
X156987000Y-85994250D01*
X156987000Y-85403691D01*
X156890327Y-85170302D01*
X156711699Y-84991673D01*
X156478310Y-84895000D01*
X155987750Y-84895000D01*
X155829000Y-85053750D01*
X155575000Y-85053750D01*
X155416250Y-84895000D01*
X154925690Y-84895000D01*
X154692301Y-84991673D01*
X154513673Y-85170302D01*
X154417000Y-85403691D01*
X153772231Y-85403691D01*
X153512480Y-85014946D01*
X153183307Y-84795000D01*
X153512480Y-84575054D01*
X153834387Y-84093285D01*
X153914257Y-83691750D01*
X157688000Y-83691750D01*
X157688000Y-84307309D01*
X157784673Y-84540698D01*
X157963301Y-84719327D01*
X158196690Y-84816000D01*
X158337250Y-84816000D01*
X158496000Y-84657250D01*
X158496000Y-83533000D01*
X157846750Y-83533000D01*
X157688000Y-83691750D01*
X153914257Y-83691750D01*
X153947426Y-83525000D01*
X153834387Y-82956715D01*
X153532355Y-82504691D01*
X157688000Y-82504691D01*
X157688000Y-83120250D01*
X157846750Y-83279000D01*
X158496000Y-83279000D01*
X158496000Y-82154750D01*
X158337250Y-81996000D01*
X158196690Y-81996000D01*
X157963301Y-82092673D01*
X157784673Y-82271302D01*
X157688000Y-82504691D01*
X153532355Y-82504691D01*
X153512480Y-82474946D01*
X153183307Y-82255000D01*
X153512480Y-82035054D01*
X153834387Y-81553285D01*
X153947426Y-80985000D01*
X153834387Y-80416715D01*
X153512480Y-79934946D01*
X153183307Y-79715000D01*
X153512480Y-79495054D01*
X153834387Y-79013285D01*
X153947426Y-78445000D01*
X153834387Y-77876715D01*
X153512480Y-77394946D01*
X153171780Y-77167298D01*
X153314691Y-77100183D01*
X153704978Y-76671924D01*
X153874809Y-76261890D01*
X153753488Y-76032000D01*
X152560333Y-76032000D01*
X152560333Y-76052000D01*
X152306333Y-76052000D01*
X152306333Y-76032000D01*
X151113178Y-76032000D01*
X150991857Y-76261890D01*
X151161688Y-76671924D01*
X151551975Y-77100183D01*
X151694886Y-77167298D01*
X151354186Y-77394946D01*
X151032279Y-77876715D01*
X150919240Y-78445000D01*
X151032279Y-79013285D01*
X151354186Y-79495054D01*
X151683359Y-79715000D01*
X151354186Y-79934946D01*
X151032279Y-80416715D01*
X150919240Y-80985000D01*
X151032279Y-81553285D01*
X151354186Y-82035054D01*
X151683359Y-82255000D01*
X151354186Y-82474946D01*
X151032279Y-82956715D01*
X150919240Y-83525000D01*
X151032279Y-84093285D01*
X151354186Y-84575054D01*
X151683359Y-84795000D01*
X151354186Y-85014946D01*
X151032279Y-85496715D01*
X150919240Y-86065000D01*
X151032279Y-86633285D01*
X151354186Y-87115054D01*
X151683359Y-87335000D01*
X151354186Y-87554946D01*
X151032279Y-88036715D01*
X150919240Y-88605000D01*
X151032279Y-89173285D01*
X151354186Y-89655054D01*
X151683359Y-89875000D01*
X151354186Y-90094946D01*
X151032279Y-90576715D01*
X150919240Y-91145000D01*
X151032279Y-91713285D01*
X151354186Y-92195054D01*
X151683359Y-92415000D01*
X151354186Y-92634946D01*
X151032279Y-93116715D01*
X150919240Y-93685000D01*
X151032279Y-94253285D01*
X151354186Y-94735054D01*
X151683359Y-94955000D01*
X151354186Y-95174946D01*
X151032279Y-95656715D01*
X150919240Y-96225000D01*
X151032279Y-96793285D01*
X151240560Y-97105000D01*
X148005000Y-97105000D01*
X148005000Y-73650750D01*
X150948333Y-73650750D01*
X150948333Y-74341310D01*
X151045006Y-74574699D01*
X151223635Y-74753327D01*
X151433211Y-74840136D01*
X151161688Y-75138076D01*
X150991857Y-75548110D01*
X151113178Y-75778000D01*
X152306333Y-75778000D01*
X152306333Y-73492000D01*
X152560333Y-73492000D01*
X152560333Y-75778000D01*
X153753488Y-75778000D01*
X153874809Y-75548110D01*
X153842457Y-75470000D01*
X154937560Y-75470000D01*
X154937560Y-76970000D01*
X154981838Y-77205317D01*
X155120910Y-77421441D01*
X155189006Y-77467969D01*
X155046673Y-77610302D01*
X154950000Y-77843691D01*
X154950000Y-78434250D01*
X155108750Y-78593000D01*
X156083000Y-78593000D01*
X156083000Y-78573000D01*
X156337000Y-78573000D01*
X156337000Y-78593000D01*
X157311250Y-78593000D01*
X157470000Y-78434250D01*
X157470000Y-78060026D01*
X157560302Y-78150327D01*
X157793691Y-78247000D01*
X158384250Y-78247000D01*
X158543000Y-78088250D01*
X158543000Y-77089000D01*
X158523000Y-77089000D01*
X158523000Y-76835000D01*
X158543000Y-76835000D01*
X158543000Y-75835750D01*
X158384250Y-75677000D01*
X157793691Y-75677000D01*
X157560302Y-75773673D01*
X157482440Y-75851535D01*
X157482440Y-75470000D01*
X157438162Y-75234683D01*
X157299090Y-75018559D01*
X157086890Y-74873569D01*
X156921200Y-74840016D01*
X156921200Y-74077794D01*
X157038540Y-73960659D01*
X157187730Y-73601370D01*
X157188069Y-73212337D01*
X157039507Y-72852788D01*
X156764659Y-72577460D01*
X156405370Y-72428270D01*
X156016337Y-72427931D01*
X155656788Y-72576493D01*
X155381460Y-72851341D01*
X155232270Y-73210630D01*
X155231931Y-73599663D01*
X155380493Y-73959212D01*
X155498800Y-74077726D01*
X155498800Y-74838780D01*
X155349683Y-74866838D01*
X155133559Y-75005910D01*
X154988569Y-75218110D01*
X154937560Y-75470000D01*
X153842457Y-75470000D01*
X153704978Y-75138076D01*
X153433455Y-74840136D01*
X153643031Y-74753327D01*
X153821660Y-74574699D01*
X153918333Y-74341310D01*
X153918333Y-73650750D01*
X153759583Y-73492000D01*
X152560333Y-73492000D01*
X152306333Y-73492000D01*
X151107083Y-73492000D01*
X150948333Y-73650750D01*
X148005000Y-73650750D01*
X148005000Y-72388690D01*
X150948333Y-72388690D01*
X150948333Y-73079250D01*
X151107083Y-73238000D01*
X152306333Y-73238000D01*
X152306333Y-72038750D01*
X152560333Y-72038750D01*
X152560333Y-73238000D01*
X153759583Y-73238000D01*
X153918333Y-73079250D01*
X153918333Y-72388690D01*
X153821660Y-72155301D01*
X153643031Y-71976673D01*
X153409642Y-71880000D01*
X152719083Y-71880000D01*
X152560333Y-72038750D01*
X152306333Y-72038750D01*
X152147583Y-71880000D01*
X151457024Y-71880000D01*
X151223635Y-71976673D01*
X151045006Y-72155301D01*
X150948333Y-72388690D01*
X148005000Y-72388690D01*
X148005000Y-71805000D01*
X170003000Y-71805000D01*
X170003000Y-97105000D01*
M02*
