M48
INCH,TZ
T1C0.013
T2C0.039
%
G90
G05
T1
X61500Y-28900
X61700Y-31700
X62000Y-32700
X64100Y-31300
X64400Y-35100
X64600Y-32700
X64600Y-33300
X64600Y-33800
X64600Y-34500
X65700Y-33500
X65800Y-32500
X66400Y-32900
T2
X60013Y-28884
X60013Y-29884
X60013Y-30884
X60013Y-31884
X60013Y-32884
X60013Y-33884
X60013Y-34884
X60013Y-35884
X60013Y-36884
X60013Y-37884
T0
M30
